<mxfile host="app.diagrams.net" modified="2020-07-30T12:54:53.157Z" agent="5.0 (Windows NT 10.0; Win64; x64) AppleWebKit/537.36 (KHTML, like Gecko) Chrome/84.0.4147.89 Safari/537.36" etag="3Vy64vN55AxJSwMVjD_U" version="13.5.6" type="github">
  <diagram id="d_NFn6--K3gshERupx8d" name="Page-1">
    <mxGraphModel dx="1038" dy="548" grid="1" gridSize="10" guides="1" tooltips="1" connect="1" arrows="1" fold="1" page="1" pageScale="1" pageWidth="850" pageHeight="1100" math="0" shadow="0">
      <root>
        <mxCell id="0" />
        <mxCell id="1" parent="0" />
        <mxCell id="FmbhV3B63-I_-Q1P8VYZ-138" value="" style="ellipse;shape=cloud;whiteSpace=wrap;html=1;shadow=0;sketch=0;fontFamily=Helvetica;strokeColor=#B20000;gradientDirection=west;opacity=90;fontColor=#ffffff;fillColor=none;" vertex="1" parent="1">
          <mxGeometry x="150" y="70" width="660" height="510" as="geometry" />
        </mxCell>
        <mxCell id="FmbhV3B63-I_-Q1P8VYZ-64" value="" style="ellipse;shape=cloud;whiteSpace=wrap;html=1;shadow=0;sketch=0;fontFamily=Helvetica;strokeColor=#9673a6;gradientDirection=west;fillColor=#e1d5e7;" vertex="1" parent="1">
          <mxGeometry x="290" y="170" width="413" height="330" as="geometry" />
        </mxCell>
        <mxCell id="FmbhV3B63-I_-Q1P8VYZ-63" style="edgeStyle=orthogonalEdgeStyle;curved=1;orthogonalLoop=1;jettySize=auto;html=1;exitX=0;exitY=0.5;exitDx=0;exitDy=0;exitPerimeter=0;entryX=0.662;entryY=0.026;entryDx=0;entryDy=0;entryPerimeter=0;shadow=0;dashed=1;dashPattern=1 2;endArrow=none;endFill=0;strokeColor=#000000;strokeWidth=2;fontFamily=Helvetica;" edge="1" parent="1" source="FmbhV3B63-I_-Q1P8VYZ-7" target="FmbhV3B63-I_-Q1P8VYZ-8">
          <mxGeometry relative="1" as="geometry" />
        </mxCell>
        <mxCell id="FmbhV3B63-I_-Q1P8VYZ-23" value="" style="endArrow=none;html=1;exitX=1;exitY=0.5;exitDx=0;exitDy=0;exitPerimeter=0;entryX=0;entryY=0.5;entryDx=0;entryDy=0;entryPerimeter=0;strokeWidth=3;fillColor=#d5e8d4;strokeColor=#82b366;" edge="1" parent="1" source="FmbhV3B63-I_-Q1P8VYZ-12" target="FmbhV3B63-I_-Q1P8VYZ-8">
          <mxGeometry width="50" height="50" relative="1" as="geometry">
            <mxPoint x="218" y="550" as="sourcePoint" />
            <mxPoint x="268" y="500" as="targetPoint" />
          </mxGeometry>
        </mxCell>
        <mxCell id="FmbhV3B63-I_-Q1P8VYZ-37" value="" style="ellipse;shape=cloud;whiteSpace=wrap;html=1;fillColor=#d5e8d4;strokeColor=#82b366;" vertex="1" parent="1">
          <mxGeometry x="789" y="423" width="151" height="97" as="geometry" />
        </mxCell>
        <mxCell id="FmbhV3B63-I_-Q1P8VYZ-26" value="" style="endArrow=none;html=1;exitX=0;exitY=0.5;exitDx=0;exitDy=0;exitPerimeter=0;entryX=1;entryY=0.5;entryDx=0;entryDy=0;entryPerimeter=0;fillColor=#fff2cc;strokeColor=#d6b656;strokeWidth=3;" edge="1" parent="1" source="FmbhV3B63-I_-Q1P8VYZ-14" target="FmbhV3B63-I_-Q1P8VYZ-7">
          <mxGeometry width="50" height="50" relative="1" as="geometry">
            <mxPoint x="568" y="160" as="sourcePoint" />
            <mxPoint x="618" y="110" as="targetPoint" />
          </mxGeometry>
        </mxCell>
        <mxCell id="FmbhV3B63-I_-Q1P8VYZ-36" value="" style="ellipse;shape=cloud;whiteSpace=wrap;html=1;fillColor=#fff2cc;strokeColor=#d6b656;" vertex="1" parent="1">
          <mxGeometry x="789" y="218" width="151" height="97" as="geometry" />
        </mxCell>
        <mxCell id="FmbhV3B63-I_-Q1P8VYZ-35" value="" style="ellipse;shape=cloud;whiteSpace=wrap;html=1;fillColor=#fff2cc;strokeColor=#d6b656;" vertex="1" parent="1">
          <mxGeometry x="787" y="131" width="153" height="97" as="geometry" />
        </mxCell>
        <mxCell id="FmbhV3B63-I_-Q1P8VYZ-34" value="" style="ellipse;shape=cloud;whiteSpace=wrap;html=1;fillColor=#d5e8d4;strokeColor=#82b366;" vertex="1" parent="1">
          <mxGeometry x="40" y="449" width="153" height="97" as="geometry" />
        </mxCell>
        <mxCell id="FmbhV3B63-I_-Q1P8VYZ-33" value="" style="ellipse;shape=cloud;whiteSpace=wrap;html=1;fillColor=#fff2cc;strokeColor=#d6b656;" vertex="1" parent="1">
          <mxGeometry x="40" y="363" width="152" height="97" as="geometry" />
        </mxCell>
        <mxCell id="FmbhV3B63-I_-Q1P8VYZ-32" value="" style="ellipse;shape=cloud;whiteSpace=wrap;html=1;fillColor=#fff2cc;strokeColor=#d6b656;" vertex="1" parent="1">
          <mxGeometry x="40" y="168" width="153" height="97" as="geometry" />
        </mxCell>
        <mxCell id="FmbhV3B63-I_-Q1P8VYZ-59" style="edgeStyle=orthogonalEdgeStyle;curved=1;orthogonalLoop=1;jettySize=auto;html=1;exitX=1;exitY=0.5;exitDx=0;exitDy=0;exitPerimeter=0;entryX=0.12;entryY=0.1;entryDx=0;entryDy=0;entryPerimeter=0;shadow=0;dashed=1;endArrow=none;endFill=0;strokeColor=#000000;strokeWidth=2;fontFamily=Helvetica;dashPattern=1 2;" edge="1" parent="1" source="FmbhV3B63-I_-Q1P8VYZ-1" target="FmbhV3B63-I_-Q1P8VYZ-6">
          <mxGeometry relative="1" as="geometry" />
        </mxCell>
        <mxCell id="FmbhV3B63-I_-Q1P8VYZ-1" value="" style="shape=mxgraph.cisco.routers.atm_router;html=1;dashed=0;fillColor=#036897;strokeColor=#ffffff;strokeWidth=2;verticalLabelPosition=bottom;verticalAlign=top" vertex="1" parent="1">
          <mxGeometry x="248" y="210" width="78" height="53" as="geometry" />
        </mxCell>
        <mxCell id="FmbhV3B63-I_-Q1P8VYZ-2" value="" style="shape=mxgraph.cisco.routers.gigabit_switch_atm_tag_router;html=1;dashed=0;fillColor=#036897;strokeColor=#ffffff;strokeWidth=2;verticalLabelPosition=bottom;verticalAlign=top" vertex="1" parent="1">
          <mxGeometry x="388" y="240" width="78" height="78" as="geometry" />
        </mxCell>
        <mxCell id="FmbhV3B63-I_-Q1P8VYZ-16" style="edgeStyle=orthogonalEdgeStyle;rounded=0;orthogonalLoop=1;jettySize=auto;html=1;exitX=0.5;exitY=1;exitDx=0;exitDy=0;exitPerimeter=0;entryX=0.5;entryY=0;entryDx=0;entryDy=0;entryPerimeter=0;endArrow=none;endFill=0;" edge="1" parent="1" source="FmbhV3B63-I_-Q1P8VYZ-3" target="FmbhV3B63-I_-Q1P8VYZ-5">
          <mxGeometry relative="1" as="geometry" />
        </mxCell>
        <mxCell id="FmbhV3B63-I_-Q1P8VYZ-20" style="edgeStyle=orthogonalEdgeStyle;rounded=0;orthogonalLoop=1;jettySize=auto;html=1;exitX=0;exitY=0.5;exitDx=0;exitDy=0;exitPerimeter=0;entryX=1;entryY=0.5;entryDx=0;entryDy=0;entryPerimeter=0;endArrow=none;endFill=0;" edge="1" parent="1" source="FmbhV3B63-I_-Q1P8VYZ-3" target="FmbhV3B63-I_-Q1P8VYZ-2">
          <mxGeometry relative="1" as="geometry" />
        </mxCell>
        <mxCell id="FmbhV3B63-I_-Q1P8VYZ-3" value="" style="shape=mxgraph.cisco.routers.gigabit_switch_atm_tag_router;html=1;dashed=0;fillColor=#036897;strokeColor=#ffffff;strokeWidth=2;verticalLabelPosition=bottom;verticalAlign=top" vertex="1" parent="1">
          <mxGeometry x="528" y="240" width="78" height="78" as="geometry" />
        </mxCell>
        <mxCell id="FmbhV3B63-I_-Q1P8VYZ-19" style="edgeStyle=orthogonalEdgeStyle;rounded=0;orthogonalLoop=1;jettySize=auto;html=1;exitX=0.5;exitY=0;exitDx=0;exitDy=0;exitPerimeter=0;entryX=0.5;entryY=1;entryDx=0;entryDy=0;entryPerimeter=0;endArrow=none;endFill=0;" edge="1" parent="1" source="FmbhV3B63-I_-Q1P8VYZ-4" target="FmbhV3B63-I_-Q1P8VYZ-2">
          <mxGeometry relative="1" as="geometry" />
        </mxCell>
        <mxCell id="FmbhV3B63-I_-Q1P8VYZ-4" value="" style="shape=mxgraph.cisco.routers.gigabit_switch_atm_tag_router;html=1;dashed=0;fillColor=#036897;strokeColor=#ffffff;strokeWidth=2;verticalLabelPosition=bottom;verticalAlign=top" vertex="1" parent="1">
          <mxGeometry x="388" y="360" width="78" height="78" as="geometry" />
        </mxCell>
        <mxCell id="FmbhV3B63-I_-Q1P8VYZ-18" style="edgeStyle=orthogonalEdgeStyle;rounded=0;orthogonalLoop=1;jettySize=auto;html=1;exitX=0;exitY=0.5;exitDx=0;exitDy=0;exitPerimeter=0;entryX=1;entryY=0.5;entryDx=0;entryDy=0;entryPerimeter=0;endArrow=none;endFill=0;" edge="1" parent="1" source="FmbhV3B63-I_-Q1P8VYZ-5" target="FmbhV3B63-I_-Q1P8VYZ-4">
          <mxGeometry relative="1" as="geometry" />
        </mxCell>
        <mxCell id="FmbhV3B63-I_-Q1P8VYZ-5" value="" style="shape=mxgraph.cisco.routers.gigabit_switch_atm_tag_router;html=1;dashed=0;fillColor=#036897;strokeColor=#ffffff;strokeWidth=2;verticalLabelPosition=bottom;verticalAlign=top" vertex="1" parent="1">
          <mxGeometry x="528" y="360" width="78" height="78" as="geometry" />
        </mxCell>
        <mxCell id="FmbhV3B63-I_-Q1P8VYZ-56" style="edgeStyle=orthogonalEdgeStyle;rounded=0;orthogonalLoop=1;jettySize=auto;html=1;exitX=0.011;exitY=0.767;exitDx=0;exitDy=0;exitPerimeter=0;entryX=0.992;entryY=0.749;entryDx=0;entryDy=0;entryPerimeter=0;shadow=0;endArrow=none;endFill=0;strokeWidth=2;fontFamily=Helvetica;dashed=1;dashPattern=1 2;" edge="1" parent="1" source="FmbhV3B63-I_-Q1P8VYZ-6" target="FmbhV3B63-I_-Q1P8VYZ-8">
          <mxGeometry relative="1" as="geometry" />
        </mxCell>
        <mxCell id="FmbhV3B63-I_-Q1P8VYZ-6" value="" style="shape=mxgraph.cisco.routers.atm_router;html=1;dashed=0;fillColor=#036897;strokeColor=#ffffff;strokeWidth=2;verticalLabelPosition=bottom;verticalAlign=top" vertex="1" parent="1">
          <mxGeometry x="668" y="420" width="78" height="53" as="geometry" />
        </mxCell>
        <mxCell id="FmbhV3B63-I_-Q1P8VYZ-57" style="edgeStyle=orthogonalEdgeStyle;rounded=0;orthogonalLoop=1;jettySize=auto;html=1;exitX=0.12;exitY=0.1;exitDx=0;exitDy=0;exitPerimeter=0;entryX=0.88;entryY=0.1;entryDx=0;entryDy=0;entryPerimeter=0;shadow=0;endArrow=none;endFill=0;strokeColor=#000000;strokeWidth=2;fontFamily=Helvetica;dashed=1;dashPattern=1 2;" edge="1" parent="1" source="FmbhV3B63-I_-Q1P8VYZ-7" target="FmbhV3B63-I_-Q1P8VYZ-1">
          <mxGeometry relative="1" as="geometry" />
        </mxCell>
        <mxCell id="FmbhV3B63-I_-Q1P8VYZ-62" style="edgeStyle=orthogonalEdgeStyle;curved=1;orthogonalLoop=1;jettySize=auto;html=1;exitX=0.5;exitY=1;exitDx=0;exitDy=0;exitPerimeter=0;shadow=0;dashed=1;dashPattern=1 2;endArrow=none;endFill=0;strokeColor=#000000;strokeWidth=2;fontFamily=Helvetica;" edge="1" parent="1" source="FmbhV3B63-I_-Q1P8VYZ-7">
          <mxGeometry relative="1" as="geometry">
            <mxPoint x="707" y="420" as="targetPoint" />
          </mxGeometry>
        </mxCell>
        <mxCell id="FmbhV3B63-I_-Q1P8VYZ-7" value="" style="shape=mxgraph.cisco.routers.atm_router;html=1;dashed=0;fillColor=#036897;strokeColor=#ffffff;strokeWidth=2;verticalLabelPosition=bottom;verticalAlign=top" vertex="1" parent="1">
          <mxGeometry x="668" y="210" width="78" height="53" as="geometry" />
        </mxCell>
        <mxCell id="FmbhV3B63-I_-Q1P8VYZ-60" style="edgeStyle=orthogonalEdgeStyle;curved=1;orthogonalLoop=1;jettySize=auto;html=1;exitX=0.5;exitY=0;exitDx=0;exitDy=0;exitPerimeter=0;entryX=0.5;entryY=1;entryDx=0;entryDy=0;entryPerimeter=0;shadow=0;dashed=1;dashPattern=1 2;endArrow=none;endFill=0;strokeColor=#000000;strokeWidth=2;fontFamily=Helvetica;" edge="1" parent="1" source="FmbhV3B63-I_-Q1P8VYZ-8" target="FmbhV3B63-I_-Q1P8VYZ-1">
          <mxGeometry relative="1" as="geometry" />
        </mxCell>
        <mxCell id="FmbhV3B63-I_-Q1P8VYZ-8" value="" style="shape=mxgraph.cisco.routers.atm_router;html=1;dashed=0;fillColor=#036897;strokeColor=#ffffff;strokeWidth=2;verticalLabelPosition=bottom;verticalAlign=top" vertex="1" parent="1">
          <mxGeometry x="248" y="420" width="78" height="53" as="geometry" />
        </mxCell>
        <mxCell id="FmbhV3B63-I_-Q1P8VYZ-10" value="" style="shape=mxgraph.cisco.routers.router;html=1;dashed=0;fillColor=#036897;strokeColor=#ffffff;strokeWidth=2;verticalLabelPosition=middle;verticalAlign=middle;fontFamily=Helvetica;labelPosition=left;align=right;sketch=0;shadow=0;" vertex="1" parent="1">
          <mxGeometry x="98" y="190" width="78" height="53" as="geometry" />
        </mxCell>
        <mxCell id="FmbhV3B63-I_-Q1P8VYZ-11" value="" style="shape=mxgraph.cisco.routers.router;html=1;dashed=0;fillColor=#036897;strokeColor=#ffffff;strokeWidth=2;verticalLabelPosition=bottom;verticalAlign=top" vertex="1" parent="1">
          <mxGeometry x="98" y="385" width="78" height="53" as="geometry" />
        </mxCell>
        <mxCell id="FmbhV3B63-I_-Q1P8VYZ-12" value="" style="shape=mxgraph.cisco.routers.router;html=1;dashed=0;fillColor=#036897;strokeColor=#ffffff;strokeWidth=2;verticalLabelPosition=bottom;verticalAlign=top" vertex="1" parent="1">
          <mxGeometry x="98" y="473" width="78" height="53" as="geometry" />
        </mxCell>
        <mxCell id="FmbhV3B63-I_-Q1P8VYZ-13" value="" style="shape=mxgraph.cisco.routers.router;html=1;dashed=0;fillColor=#036897;strokeColor=#ffffff;strokeWidth=2;verticalLabelPosition=bottom;verticalAlign=top" vertex="1" parent="1">
          <mxGeometry x="808" y="157" width="78" height="53" as="geometry" />
        </mxCell>
        <mxCell id="FmbhV3B63-I_-Q1P8VYZ-14" value="" style="shape=mxgraph.cisco.routers.router;html=1;dashed=0;fillColor=#036897;strokeColor=#ffffff;strokeWidth=2;verticalLabelPosition=bottom;verticalAlign=top" vertex="1" parent="1">
          <mxGeometry x="808" y="240" width="78" height="53" as="geometry" />
        </mxCell>
        <mxCell id="FmbhV3B63-I_-Q1P8VYZ-15" value="" style="shape=mxgraph.cisco.routers.router;html=1;dashed=0;fillColor=#036897;strokeColor=#ffffff;strokeWidth=2;verticalLabelPosition=bottom;verticalAlign=top" vertex="1" parent="1">
          <mxGeometry x="808" y="450" width="78" height="53" as="geometry" />
        </mxCell>
        <mxCell id="FmbhV3B63-I_-Q1P8VYZ-21" value="" style="endArrow=none;html=1;exitX=1;exitY=0;exitDx=0;exitDy=0;exitPerimeter=0;entryX=0.072;entryY=0.928;entryDx=0;entryDy=0;entryPerimeter=0;" edge="1" parent="1" target="FmbhV3B63-I_-Q1P8VYZ-3">
          <mxGeometry width="50" height="50" relative="1" as="geometry">
            <mxPoint x="462" y="368" as="sourcePoint" />
            <mxPoint x="538" y="308" as="targetPoint" />
          </mxGeometry>
        </mxCell>
        <mxCell id="FmbhV3B63-I_-Q1P8VYZ-22" value="" style="endArrow=none;html=1;exitX=1;exitY=0.5;exitDx=0;exitDy=0;exitPerimeter=0;entryX=0;entryY=0.5;entryDx=0;entryDy=0;entryPerimeter=0;strokeWidth=3;fillColor=#fff2cc;strokeColor=#d6b656;" edge="1" parent="1" source="FmbhV3B63-I_-Q1P8VYZ-11" target="FmbhV3B63-I_-Q1P8VYZ-8">
          <mxGeometry width="50" height="50" relative="1" as="geometry">
            <mxPoint x="228" y="560" as="sourcePoint" />
            <mxPoint x="278" y="510" as="targetPoint" />
          </mxGeometry>
        </mxCell>
        <mxCell id="FmbhV3B63-I_-Q1P8VYZ-24" value="" style="endArrow=none;html=1;exitX=1;exitY=0.5;exitDx=0;exitDy=0;exitPerimeter=0;entryX=0;entryY=0.5;entryDx=0;entryDy=0;entryPerimeter=0;fillColor=#fff2cc;strokeColor=#d6b656;strokeWidth=3;" edge="1" parent="1" source="FmbhV3B63-I_-Q1P8VYZ-10" target="FmbhV3B63-I_-Q1P8VYZ-1">
          <mxGeometry width="50" height="50" relative="1" as="geometry">
            <mxPoint x="228" y="190" as="sourcePoint" />
            <mxPoint x="278" y="140" as="targetPoint" />
          </mxGeometry>
        </mxCell>
        <mxCell id="FmbhV3B63-I_-Q1P8VYZ-25" value="" style="endArrow=none;html=1;exitX=1;exitY=0.5;exitDx=0;exitDy=0;exitPerimeter=0;entryX=0;entryY=0.5;entryDx=0;entryDy=0;entryPerimeter=0;strokeWidth=3;fillColor=#fff2cc;strokeColor=#d6b656;" edge="1" parent="1" source="FmbhV3B63-I_-Q1P8VYZ-7" target="FmbhV3B63-I_-Q1P8VYZ-13">
          <mxGeometry width="50" height="50" relative="1" as="geometry">
            <mxPoint x="758" y="180" as="sourcePoint" />
            <mxPoint x="808" y="130" as="targetPoint" />
          </mxGeometry>
        </mxCell>
        <mxCell id="FmbhV3B63-I_-Q1P8VYZ-27" value="" style="endArrow=none;html=1;entryX=0;entryY=0.5;entryDx=0;entryDy=0;entryPerimeter=0;exitX=1;exitY=0.5;exitDx=0;exitDy=0;exitPerimeter=0;fillColor=#d5e8d4;strokeColor=#82b366;strokeWidth=3;" edge="1" parent="1" source="FmbhV3B63-I_-Q1P8VYZ-6" target="FmbhV3B63-I_-Q1P8VYZ-15">
          <mxGeometry width="50" height="50" relative="1" as="geometry">
            <mxPoint x="668" y="560" as="sourcePoint" />
            <mxPoint x="718" y="510" as="targetPoint" />
          </mxGeometry>
        </mxCell>
        <mxCell id="FmbhV3B63-I_-Q1P8VYZ-28" value="" style="endArrow=none;html=1;exitX=0.88;exitY=0.9;exitDx=0;exitDy=0;exitPerimeter=0;entryX=0;entryY=0.5;entryDx=0;entryDy=0;entryPerimeter=0;" edge="1" parent="1" source="FmbhV3B63-I_-Q1P8VYZ-1" target="FmbhV3B63-I_-Q1P8VYZ-2">
          <mxGeometry width="50" height="50" relative="1" as="geometry">
            <mxPoint x="368" y="200" as="sourcePoint" />
            <mxPoint x="418" y="150" as="targetPoint" />
          </mxGeometry>
        </mxCell>
        <mxCell id="FmbhV3B63-I_-Q1P8VYZ-29" value="" style="endArrow=none;html=1;exitX=1;exitY=0.5;exitDx=0;exitDy=0;exitPerimeter=0;entryX=0;entryY=0.5;entryDx=0;entryDy=0;entryPerimeter=0;" edge="1" parent="1" source="FmbhV3B63-I_-Q1P8VYZ-8" target="FmbhV3B63-I_-Q1P8VYZ-4">
          <mxGeometry width="50" height="50" relative="1" as="geometry">
            <mxPoint x="328" y="410" as="sourcePoint" />
            <mxPoint x="378" y="360" as="targetPoint" />
          </mxGeometry>
        </mxCell>
        <mxCell id="FmbhV3B63-I_-Q1P8VYZ-30" value="" style="endArrow=none;html=1;exitX=1;exitY=0.5;exitDx=0;exitDy=0;exitPerimeter=0;entryX=0;entryY=0.5;entryDx=0;entryDy=0;entryPerimeter=0;" edge="1" parent="1" source="FmbhV3B63-I_-Q1P8VYZ-5" target="FmbhV3B63-I_-Q1P8VYZ-6">
          <mxGeometry width="50" height="50" relative="1" as="geometry">
            <mxPoint x="618" y="540" as="sourcePoint" />
            <mxPoint x="668" y="490" as="targetPoint" />
          </mxGeometry>
        </mxCell>
        <mxCell id="FmbhV3B63-I_-Q1P8VYZ-31" value="" style="endArrow=none;html=1;entryX=0;entryY=0.5;entryDx=0;entryDy=0;entryPerimeter=0;exitX=1;exitY=0.5;exitDx=0;exitDy=0;exitPerimeter=0;" edge="1" parent="1" source="FmbhV3B63-I_-Q1P8VYZ-3" target="FmbhV3B63-I_-Q1P8VYZ-7">
          <mxGeometry width="50" height="50" relative="1" as="geometry">
            <mxPoint x="458" y="170" as="sourcePoint" />
            <mxPoint x="508" y="120" as="targetPoint" />
          </mxGeometry>
        </mxCell>
        <mxCell id="FmbhV3B63-I_-Q1P8VYZ-38" value="" style="endArrow=classic;html=1;strokeWidth=2;fillColor=#e51400;strokeColor=#B20000;" edge="1" parent="1">
          <mxGeometry width="50" height="50" relative="1" as="geometry">
            <mxPoint x="218" y="530" as="sourcePoint" />
            <mxPoint x="218" y="480" as="targetPoint" />
          </mxGeometry>
        </mxCell>
        <mxCell id="FmbhV3B63-I_-Q1P8VYZ-39" value="&lt;b&gt;&lt;font color=&quot;#b20000&quot; style=&quot;font-size: 14px&quot;&gt;Data Link&lt;/font&gt;&lt;/b&gt;" style="text;html=1;strokeColor=none;fillColor=none;align=center;verticalAlign=middle;whiteSpace=wrap;rounded=0;" vertex="1" parent="1">
          <mxGeometry x="179" y="530" width="78" height="20" as="geometry" />
        </mxCell>
        <mxCell id="FmbhV3B63-I_-Q1P8VYZ-40" value="&lt;b&gt;&lt;font style=&quot;font-size: 15px&quot;&gt;CE&lt;/font&gt;&lt;/b&gt;" style="text;html=1;strokeColor=none;fillColor=none;align=center;verticalAlign=middle;whiteSpace=wrap;rounded=0;shadow=1;dashed=1;sketch=0;fontFamily=Helvetica;" vertex="1" parent="1">
          <mxGeometry x="169" y="173" width="40" height="20" as="geometry" />
        </mxCell>
        <mxCell id="FmbhV3B63-I_-Q1P8VYZ-41" value="&lt;b&gt;&lt;font style=&quot;font-size: 15px&quot;&gt;CE&lt;/font&gt;&lt;/b&gt;" style="text;html=1;strokeColor=none;fillColor=none;align=center;verticalAlign=middle;whiteSpace=wrap;rounded=0;shadow=1;dashed=1;sketch=0;fontFamily=Helvetica;" vertex="1" parent="1">
          <mxGeometry x="169" y="369" width="40" height="20" as="geometry" />
        </mxCell>
        <mxCell id="FmbhV3B63-I_-Q1P8VYZ-42" value="&lt;b&gt;&lt;font style=&quot;font-size: 15px&quot;&gt;CE&lt;/font&gt;&lt;/b&gt;" style="text;html=1;strokeColor=none;fillColor=none;align=center;verticalAlign=middle;whiteSpace=wrap;rounded=0;shadow=1;dashed=1;sketch=0;fontFamily=Helvetica;" vertex="1" parent="1">
          <mxGeometry x="172" y="453" width="40" height="20" as="geometry" />
        </mxCell>
        <mxCell id="FmbhV3B63-I_-Q1P8VYZ-43" value="&lt;b&gt;&lt;font style=&quot;font-size: 15px&quot;&gt;PE&lt;/font&gt;&lt;/b&gt;" style="text;html=1;strokeColor=none;fillColor=none;align=center;verticalAlign=middle;whiteSpace=wrap;rounded=0;shadow=1;dashed=1;sketch=0;fontFamily=Helvetica;" vertex="1" parent="1">
          <mxGeometry x="300" y="190" width="40" height="20" as="geometry" />
        </mxCell>
        <mxCell id="FmbhV3B63-I_-Q1P8VYZ-44" value="&lt;b&gt;&lt;font style=&quot;font-size: 15px&quot;&gt;PE&lt;/font&gt;&lt;/b&gt;" style="text;html=1;strokeColor=none;fillColor=none;align=center;verticalAlign=middle;whiteSpace=wrap;rounded=0;shadow=1;dashed=1;sketch=0;fontFamily=Helvetica;" vertex="1" parent="1">
          <mxGeometry x="311" y="410" width="40" height="20" as="geometry" />
        </mxCell>
        <mxCell id="FmbhV3B63-I_-Q1P8VYZ-45" value="&lt;b&gt;&lt;font style=&quot;font-size: 15px&quot;&gt;PE&lt;/font&gt;&lt;/b&gt;" style="text;html=1;strokeColor=none;fillColor=none;align=center;verticalAlign=middle;whiteSpace=wrap;rounded=0;shadow=1;dashed=1;sketch=0;fontFamily=Helvetica;" vertex="1" parent="1">
          <mxGeometry x="720" y="193" width="40" height="20" as="geometry" />
        </mxCell>
        <mxCell id="FmbhV3B63-I_-Q1P8VYZ-46" value="&lt;b&gt;&lt;font style=&quot;font-size: 15px&quot;&gt;PE&lt;/font&gt;&lt;/b&gt;" style="text;html=1;strokeColor=none;fillColor=none;align=center;verticalAlign=middle;whiteSpace=wrap;rounded=0;shadow=1;dashed=1;sketch=0;fontFamily=Helvetica;" vertex="1" parent="1">
          <mxGeometry x="720" y="403" width="40" height="20" as="geometry" />
        </mxCell>
        <mxCell id="FmbhV3B63-I_-Q1P8VYZ-47" value="&lt;b&gt;&lt;font style=&quot;font-size: 15px&quot;&gt;VPN_A&lt;/font&gt;&lt;/b&gt;" style="text;html=1;strokeColor=none;fillColor=none;align=center;verticalAlign=middle;whiteSpace=wrap;rounded=0;shadow=1;dashed=1;sketch=0;fontFamily=Helvetica;" vertex="1" parent="1">
          <mxGeometry x="30" y="170" width="40" height="20" as="geometry" />
        </mxCell>
        <mxCell id="FmbhV3B63-I_-Q1P8VYZ-49" value="&lt;b&gt;&lt;font style=&quot;font-size: 15px&quot;&gt;VPN_A&lt;/font&gt;&lt;/b&gt;" style="text;html=1;strokeColor=none;fillColor=none;align=center;verticalAlign=middle;whiteSpace=wrap;rounded=0;shadow=1;dashed=1;sketch=0;fontFamily=Helvetica;" vertex="1" parent="1">
          <mxGeometry x="30" y="365" width="40" height="20" as="geometry" />
        </mxCell>
        <mxCell id="FmbhV3B63-I_-Q1P8VYZ-50" value="&lt;b&gt;&lt;font style=&quot;font-size: 15px&quot;&gt;VPN_B&lt;/font&gt;&lt;/b&gt;" style="text;html=1;strokeColor=none;fillColor=none;align=center;verticalAlign=middle;whiteSpace=wrap;rounded=0;shadow=1;dashed=1;sketch=0;fontFamily=Helvetica;" vertex="1" parent="1">
          <mxGeometry x="30" y="450" width="40" height="20" as="geometry" />
        </mxCell>
        <mxCell id="FmbhV3B63-I_-Q1P8VYZ-51" value="&lt;b&gt;&lt;font style=&quot;font-size: 15px&quot;&gt;VPN_A&lt;/font&gt;&lt;/b&gt;" style="text;html=1;strokeColor=none;fillColor=none;align=center;verticalAlign=middle;whiteSpace=wrap;rounded=0;shadow=1;dashed=1;sketch=0;fontFamily=Helvetica;" vertex="1" parent="1">
          <mxGeometry x="930" y="137" width="40" height="20" as="geometry" />
        </mxCell>
        <mxCell id="FmbhV3B63-I_-Q1P8VYZ-52" value="&lt;b&gt;&lt;font style=&quot;font-size: 15px&quot;&gt;VPN_A&lt;/font&gt;&lt;/b&gt;" style="text;html=1;strokeColor=none;fillColor=none;align=center;verticalAlign=middle;whiteSpace=wrap;rounded=0;shadow=1;dashed=1;sketch=0;fontFamily=Helvetica;" vertex="1" parent="1">
          <mxGeometry x="930" y="223" width="40" height="20" as="geometry" />
        </mxCell>
        <mxCell id="FmbhV3B63-I_-Q1P8VYZ-53" value="&lt;b&gt;&lt;font style=&quot;font-size: 15px&quot;&gt;VPN_B&lt;/font&gt;&lt;/b&gt;" style="text;html=1;strokeColor=none;fillColor=none;align=center;verticalAlign=middle;whiteSpace=wrap;rounded=0;shadow=1;dashed=1;sketch=0;fontFamily=Helvetica;" vertex="1" parent="1">
          <mxGeometry x="930" y="433" width="40" height="20" as="geometry" />
        </mxCell>
        <mxCell id="FmbhV3B63-I_-Q1P8VYZ-54" value="" style="endArrow=classic;html=1;strokeWidth=2;fillColor=#e51400;strokeColor=#B20000;" edge="1" parent="1">
          <mxGeometry width="50" height="50" relative="1" as="geometry">
            <mxPoint x="498.9999999999998" y="512.5" as="sourcePoint" />
            <mxPoint x="498.9999999999998" y="462.5" as="targetPoint" />
          </mxGeometry>
        </mxCell>
        <mxCell id="FmbhV3B63-I_-Q1P8VYZ-55" value="&lt;b&gt;&lt;font color=&quot;#b20000&quot; style=&quot;font-size: 14px&quot;&gt;MP-BGP&lt;/font&gt;&lt;/b&gt;" style="text;html=1;strokeColor=none;fillColor=none;align=center;verticalAlign=middle;whiteSpace=wrap;rounded=0;" vertex="1" parent="1">
          <mxGeometry x="460" y="512.5" width="78" height="20" as="geometry" />
        </mxCell>
        <mxCell id="FmbhV3B63-I_-Q1P8VYZ-67" value="&lt;font style=&quot;font-size: 11px&quot;&gt;VRF_A&lt;/font&gt;" style="shape=table;html=1;whiteSpace=wrap;startSize=20;container=1;collapsible=0;childLayout=tableLayout;fontStyle=1;align=center;shadow=0;sketch=0;fillColor=#fff2cc;fontFamily=Helvetica;strokeColor=#d6b656;" vertex="1" parent="1">
          <mxGeometry x="267" y="480" width="44" height="50" as="geometry" />
        </mxCell>
        <mxCell id="FmbhV3B63-I_-Q1P8VYZ-68" value="" style="shape=partialRectangle;html=1;whiteSpace=wrap;collapsible=0;dropTarget=0;pointerEvents=0;fillColor=none;top=0;left=0;bottom=0;right=0;points=[[0,0.5],[1,0.5]];portConstraint=eastwest;shadow=0;" vertex="1" parent="FmbhV3B63-I_-Q1P8VYZ-67">
          <mxGeometry y="20" width="44" height="11" as="geometry" />
        </mxCell>
        <mxCell id="FmbhV3B63-I_-Q1P8VYZ-69" value="" style="shape=partialRectangle;html=1;whiteSpace=wrap;connectable=0;fillColor=none;top=0;left=0;bottom=0;right=0;overflow=hidden;shadow=0;" vertex="1" parent="FmbhV3B63-I_-Q1P8VYZ-68">
          <mxGeometry width="15" height="11" as="geometry" />
        </mxCell>
        <mxCell id="FmbhV3B63-I_-Q1P8VYZ-70" value="" style="shape=partialRectangle;html=1;whiteSpace=wrap;connectable=0;fillColor=none;top=0;left=0;bottom=0;right=0;overflow=hidden;shadow=0;" vertex="1" parent="FmbhV3B63-I_-Q1P8VYZ-68">
          <mxGeometry x="15" width="14" height="11" as="geometry" />
        </mxCell>
        <mxCell id="FmbhV3B63-I_-Q1P8VYZ-71" value="" style="shape=partialRectangle;html=1;whiteSpace=wrap;connectable=0;fillColor=none;top=0;left=0;bottom=0;right=0;overflow=hidden;shadow=0;" vertex="1" parent="FmbhV3B63-I_-Q1P8VYZ-68">
          <mxGeometry x="29" width="15" height="11" as="geometry" />
        </mxCell>
        <mxCell id="FmbhV3B63-I_-Q1P8VYZ-72" value="" style="shape=partialRectangle;html=1;whiteSpace=wrap;collapsible=0;dropTarget=0;pointerEvents=0;fillColor=none;top=0;left=0;bottom=0;right=0;points=[[0,0.5],[1,0.5]];portConstraint=eastwest;shadow=0;" vertex="1" parent="FmbhV3B63-I_-Q1P8VYZ-67">
          <mxGeometry y="31" width="44" height="9" as="geometry" />
        </mxCell>
        <mxCell id="FmbhV3B63-I_-Q1P8VYZ-73" value="" style="shape=partialRectangle;html=1;whiteSpace=wrap;connectable=0;fillColor=none;top=0;left=0;bottom=0;right=0;overflow=hidden;shadow=0;" vertex="1" parent="FmbhV3B63-I_-Q1P8VYZ-72">
          <mxGeometry width="15" height="9" as="geometry" />
        </mxCell>
        <mxCell id="FmbhV3B63-I_-Q1P8VYZ-74" value="" style="shape=partialRectangle;html=1;whiteSpace=wrap;connectable=0;fillColor=none;top=0;left=0;bottom=0;right=0;overflow=hidden;shadow=0;" vertex="1" parent="FmbhV3B63-I_-Q1P8VYZ-72">
          <mxGeometry x="15" width="14" height="9" as="geometry" />
        </mxCell>
        <mxCell id="FmbhV3B63-I_-Q1P8VYZ-75" value="" style="shape=partialRectangle;html=1;whiteSpace=wrap;connectable=0;fillColor=none;top=0;left=0;bottom=0;right=0;overflow=hidden;shadow=0;" vertex="1" parent="FmbhV3B63-I_-Q1P8VYZ-72">
          <mxGeometry x="29" width="15" height="9" as="geometry" />
        </mxCell>
        <mxCell id="FmbhV3B63-I_-Q1P8VYZ-76" value="" style="shape=partialRectangle;html=1;whiteSpace=wrap;collapsible=0;dropTarget=0;pointerEvents=0;fillColor=none;top=0;left=0;bottom=0;right=0;points=[[0,0.5],[1,0.5]];portConstraint=eastwest;shadow=0;" vertex="1" parent="FmbhV3B63-I_-Q1P8VYZ-67">
          <mxGeometry y="40" width="44" height="10" as="geometry" />
        </mxCell>
        <mxCell id="FmbhV3B63-I_-Q1P8VYZ-77" value="" style="shape=partialRectangle;html=1;whiteSpace=wrap;connectable=0;fillColor=none;top=0;left=0;bottom=0;right=0;overflow=hidden;shadow=0;" vertex="1" parent="FmbhV3B63-I_-Q1P8VYZ-76">
          <mxGeometry width="15" height="10" as="geometry" />
        </mxCell>
        <mxCell id="FmbhV3B63-I_-Q1P8VYZ-78" value="" style="shape=partialRectangle;html=1;whiteSpace=wrap;connectable=0;fillColor=none;top=0;left=0;bottom=0;right=0;overflow=hidden;shadow=0;" vertex="1" parent="FmbhV3B63-I_-Q1P8VYZ-76">
          <mxGeometry x="15" width="14" height="10" as="geometry" />
        </mxCell>
        <mxCell id="FmbhV3B63-I_-Q1P8VYZ-79" value="" style="shape=partialRectangle;html=1;whiteSpace=wrap;connectable=0;fillColor=none;top=0;left=0;bottom=0;right=0;overflow=hidden;shadow=0;" vertex="1" parent="FmbhV3B63-I_-Q1P8VYZ-76">
          <mxGeometry x="29" width="15" height="10" as="geometry" />
        </mxCell>
        <mxCell id="FmbhV3B63-I_-Q1P8VYZ-80" value="&lt;font style=&quot;font-size: 11px&quot;&gt;VRF_B&lt;/font&gt;" style="shape=table;html=1;whiteSpace=wrap;startSize=20;container=1;collapsible=0;childLayout=tableLayout;fontStyle=1;align=center;shadow=0;sketch=0;fillColor=#d5e8d4;fontFamily=Helvetica;strokeColor=#82b366;" vertex="1" parent="1">
          <mxGeometry x="267" y="540" width="44" height="50" as="geometry" />
        </mxCell>
        <mxCell id="FmbhV3B63-I_-Q1P8VYZ-81" value="" style="shape=partialRectangle;html=1;whiteSpace=wrap;collapsible=0;dropTarget=0;pointerEvents=0;fillColor=none;top=0;left=0;bottom=0;right=0;points=[[0,0.5],[1,0.5]];portConstraint=eastwest;shadow=0;" vertex="1" parent="FmbhV3B63-I_-Q1P8VYZ-80">
          <mxGeometry y="20" width="44" height="11" as="geometry" />
        </mxCell>
        <mxCell id="FmbhV3B63-I_-Q1P8VYZ-82" value="" style="shape=partialRectangle;html=1;whiteSpace=wrap;connectable=0;fillColor=none;top=0;left=0;bottom=0;right=0;overflow=hidden;shadow=0;" vertex="1" parent="FmbhV3B63-I_-Q1P8VYZ-81">
          <mxGeometry width="15" height="11" as="geometry" />
        </mxCell>
        <mxCell id="FmbhV3B63-I_-Q1P8VYZ-83" value="" style="shape=partialRectangle;html=1;whiteSpace=wrap;connectable=0;fillColor=none;top=0;left=0;bottom=0;right=0;overflow=hidden;shadow=0;" vertex="1" parent="FmbhV3B63-I_-Q1P8VYZ-81">
          <mxGeometry x="15" width="14" height="11" as="geometry" />
        </mxCell>
        <mxCell id="FmbhV3B63-I_-Q1P8VYZ-84" value="" style="shape=partialRectangle;html=1;whiteSpace=wrap;connectable=0;fillColor=none;top=0;left=0;bottom=0;right=0;overflow=hidden;shadow=0;" vertex="1" parent="FmbhV3B63-I_-Q1P8VYZ-81">
          <mxGeometry x="29" width="15" height="11" as="geometry" />
        </mxCell>
        <mxCell id="FmbhV3B63-I_-Q1P8VYZ-85" value="" style="shape=partialRectangle;html=1;whiteSpace=wrap;collapsible=0;dropTarget=0;pointerEvents=0;fillColor=none;top=0;left=0;bottom=0;right=0;points=[[0,0.5],[1,0.5]];portConstraint=eastwest;shadow=0;" vertex="1" parent="FmbhV3B63-I_-Q1P8VYZ-80">
          <mxGeometry y="31" width="44" height="9" as="geometry" />
        </mxCell>
        <mxCell id="FmbhV3B63-I_-Q1P8VYZ-86" value="" style="shape=partialRectangle;html=1;whiteSpace=wrap;connectable=0;fillColor=none;top=0;left=0;bottom=0;right=0;overflow=hidden;shadow=0;" vertex="1" parent="FmbhV3B63-I_-Q1P8VYZ-85">
          <mxGeometry width="15" height="9" as="geometry" />
        </mxCell>
        <mxCell id="FmbhV3B63-I_-Q1P8VYZ-87" value="" style="shape=partialRectangle;html=1;whiteSpace=wrap;connectable=0;fillColor=none;top=0;left=0;bottom=0;right=0;overflow=hidden;shadow=0;" vertex="1" parent="FmbhV3B63-I_-Q1P8VYZ-85">
          <mxGeometry x="15" width="14" height="9" as="geometry" />
        </mxCell>
        <mxCell id="FmbhV3B63-I_-Q1P8VYZ-88" value="" style="shape=partialRectangle;html=1;whiteSpace=wrap;connectable=0;fillColor=none;top=0;left=0;bottom=0;right=0;overflow=hidden;shadow=0;" vertex="1" parent="FmbhV3B63-I_-Q1P8VYZ-85">
          <mxGeometry x="29" width="15" height="9" as="geometry" />
        </mxCell>
        <mxCell id="FmbhV3B63-I_-Q1P8VYZ-89" value="" style="shape=partialRectangle;html=1;whiteSpace=wrap;collapsible=0;dropTarget=0;pointerEvents=0;fillColor=none;top=0;left=0;bottom=0;right=0;points=[[0,0.5],[1,0.5]];portConstraint=eastwest;shadow=0;" vertex="1" parent="FmbhV3B63-I_-Q1P8VYZ-80">
          <mxGeometry y="40" width="44" height="10" as="geometry" />
        </mxCell>
        <mxCell id="FmbhV3B63-I_-Q1P8VYZ-90" value="" style="shape=partialRectangle;html=1;whiteSpace=wrap;connectable=0;fillColor=none;top=0;left=0;bottom=0;right=0;overflow=hidden;shadow=0;" vertex="1" parent="FmbhV3B63-I_-Q1P8VYZ-89">
          <mxGeometry width="15" height="10" as="geometry" />
        </mxCell>
        <mxCell id="FmbhV3B63-I_-Q1P8VYZ-91" value="" style="shape=partialRectangle;html=1;whiteSpace=wrap;connectable=0;fillColor=none;top=0;left=0;bottom=0;right=0;overflow=hidden;shadow=0;" vertex="1" parent="FmbhV3B63-I_-Q1P8VYZ-89">
          <mxGeometry x="15" width="14" height="10" as="geometry" />
        </mxCell>
        <mxCell id="FmbhV3B63-I_-Q1P8VYZ-92" value="" style="shape=partialRectangle;html=1;whiteSpace=wrap;connectable=0;fillColor=none;top=0;left=0;bottom=0;right=0;overflow=hidden;shadow=0;" vertex="1" parent="FmbhV3B63-I_-Q1P8VYZ-89">
          <mxGeometry x="29" width="15" height="10" as="geometry" />
        </mxCell>
        <mxCell id="FmbhV3B63-I_-Q1P8VYZ-93" value="&lt;font style=&quot;font-size: 11px&quot;&gt;VRF_A&lt;/font&gt;" style="shape=table;html=1;whiteSpace=wrap;startSize=20;container=1;collapsible=0;childLayout=tableLayout;fontStyle=1;align=center;shadow=0;sketch=0;fillColor=#fff2cc;fontFamily=Helvetica;strokeColor=#d6b656;" vertex="1" parent="1">
          <mxGeometry x="265" y="143" width="44" height="50" as="geometry" />
        </mxCell>
        <mxCell id="FmbhV3B63-I_-Q1P8VYZ-94" value="" style="shape=partialRectangle;html=1;whiteSpace=wrap;collapsible=0;dropTarget=0;pointerEvents=0;fillColor=none;top=0;left=0;bottom=0;right=0;points=[[0,0.5],[1,0.5]];portConstraint=eastwest;shadow=0;" vertex="1" parent="FmbhV3B63-I_-Q1P8VYZ-93">
          <mxGeometry y="20" width="44" height="11" as="geometry" />
        </mxCell>
        <mxCell id="FmbhV3B63-I_-Q1P8VYZ-95" value="" style="shape=partialRectangle;html=1;whiteSpace=wrap;connectable=0;fillColor=none;top=0;left=0;bottom=0;right=0;overflow=hidden;shadow=0;" vertex="1" parent="FmbhV3B63-I_-Q1P8VYZ-94">
          <mxGeometry width="15" height="11" as="geometry" />
        </mxCell>
        <mxCell id="FmbhV3B63-I_-Q1P8VYZ-96" value="" style="shape=partialRectangle;html=1;whiteSpace=wrap;connectable=0;fillColor=none;top=0;left=0;bottom=0;right=0;overflow=hidden;shadow=0;" vertex="1" parent="FmbhV3B63-I_-Q1P8VYZ-94">
          <mxGeometry x="15" width="14" height="11" as="geometry" />
        </mxCell>
        <mxCell id="FmbhV3B63-I_-Q1P8VYZ-97" value="" style="shape=partialRectangle;html=1;whiteSpace=wrap;connectable=0;fillColor=none;top=0;left=0;bottom=0;right=0;overflow=hidden;shadow=0;" vertex="1" parent="FmbhV3B63-I_-Q1P8VYZ-94">
          <mxGeometry x="29" width="15" height="11" as="geometry" />
        </mxCell>
        <mxCell id="FmbhV3B63-I_-Q1P8VYZ-98" value="" style="shape=partialRectangle;html=1;whiteSpace=wrap;collapsible=0;dropTarget=0;pointerEvents=0;fillColor=none;top=0;left=0;bottom=0;right=0;points=[[0,0.5],[1,0.5]];portConstraint=eastwest;shadow=0;" vertex="1" parent="FmbhV3B63-I_-Q1P8VYZ-93">
          <mxGeometry y="31" width="44" height="9" as="geometry" />
        </mxCell>
        <mxCell id="FmbhV3B63-I_-Q1P8VYZ-99" value="" style="shape=partialRectangle;html=1;whiteSpace=wrap;connectable=0;fillColor=none;top=0;left=0;bottom=0;right=0;overflow=hidden;shadow=0;" vertex="1" parent="FmbhV3B63-I_-Q1P8VYZ-98">
          <mxGeometry width="15" height="9" as="geometry" />
        </mxCell>
        <mxCell id="FmbhV3B63-I_-Q1P8VYZ-100" value="" style="shape=partialRectangle;html=1;whiteSpace=wrap;connectable=0;fillColor=none;top=0;left=0;bottom=0;right=0;overflow=hidden;shadow=0;" vertex="1" parent="FmbhV3B63-I_-Q1P8VYZ-98">
          <mxGeometry x="15" width="14" height="9" as="geometry" />
        </mxCell>
        <mxCell id="FmbhV3B63-I_-Q1P8VYZ-101" value="" style="shape=partialRectangle;html=1;whiteSpace=wrap;connectable=0;fillColor=none;top=0;left=0;bottom=0;right=0;overflow=hidden;shadow=0;" vertex="1" parent="FmbhV3B63-I_-Q1P8VYZ-98">
          <mxGeometry x="29" width="15" height="9" as="geometry" />
        </mxCell>
        <mxCell id="FmbhV3B63-I_-Q1P8VYZ-102" value="" style="shape=partialRectangle;html=1;whiteSpace=wrap;collapsible=0;dropTarget=0;pointerEvents=0;fillColor=none;top=0;left=0;bottom=0;right=0;points=[[0,0.5],[1,0.5]];portConstraint=eastwest;shadow=0;" vertex="1" parent="FmbhV3B63-I_-Q1P8VYZ-93">
          <mxGeometry y="40" width="44" height="10" as="geometry" />
        </mxCell>
        <mxCell id="FmbhV3B63-I_-Q1P8VYZ-103" value="" style="shape=partialRectangle;html=1;whiteSpace=wrap;connectable=0;fillColor=none;top=0;left=0;bottom=0;right=0;overflow=hidden;shadow=0;" vertex="1" parent="FmbhV3B63-I_-Q1P8VYZ-102">
          <mxGeometry width="15" height="10" as="geometry" />
        </mxCell>
        <mxCell id="FmbhV3B63-I_-Q1P8VYZ-104" value="" style="shape=partialRectangle;html=1;whiteSpace=wrap;connectable=0;fillColor=none;top=0;left=0;bottom=0;right=0;overflow=hidden;shadow=0;" vertex="1" parent="FmbhV3B63-I_-Q1P8VYZ-102">
          <mxGeometry x="15" width="14" height="10" as="geometry" />
        </mxCell>
        <mxCell id="FmbhV3B63-I_-Q1P8VYZ-105" value="" style="shape=partialRectangle;html=1;whiteSpace=wrap;connectable=0;fillColor=none;top=0;left=0;bottom=0;right=0;overflow=hidden;shadow=0;" vertex="1" parent="FmbhV3B63-I_-Q1P8VYZ-102">
          <mxGeometry x="29" width="15" height="10" as="geometry" />
        </mxCell>
        <mxCell id="FmbhV3B63-I_-Q1P8VYZ-106" value="&lt;font style=&quot;font-size: 11px&quot;&gt;VRF_A&lt;/font&gt;" style="shape=table;html=1;whiteSpace=wrap;startSize=20;container=1;collapsible=0;childLayout=tableLayout;fontStyle=1;align=center;shadow=0;sketch=0;fillColor=#fff2cc;fontFamily=Helvetica;strokeColor=#d6b656;swimlaneFillColor=#ffffff;" vertex="1" parent="1">
          <mxGeometry x="685" y="143" width="44" height="50" as="geometry" />
        </mxCell>
        <mxCell id="FmbhV3B63-I_-Q1P8VYZ-107" value="" style="shape=partialRectangle;html=1;whiteSpace=wrap;collapsible=0;dropTarget=0;pointerEvents=0;fillColor=none;top=0;left=0;bottom=0;right=0;points=[[0,0.5],[1,0.5]];portConstraint=eastwest;shadow=0;" vertex="1" parent="FmbhV3B63-I_-Q1P8VYZ-106">
          <mxGeometry y="20" width="44" height="11" as="geometry" />
        </mxCell>
        <mxCell id="FmbhV3B63-I_-Q1P8VYZ-108" value="" style="shape=partialRectangle;html=1;whiteSpace=wrap;connectable=0;fillColor=none;top=0;left=0;bottom=0;right=0;overflow=hidden;shadow=0;" vertex="1" parent="FmbhV3B63-I_-Q1P8VYZ-107">
          <mxGeometry width="15" height="11" as="geometry" />
        </mxCell>
        <mxCell id="FmbhV3B63-I_-Q1P8VYZ-109" value="" style="shape=partialRectangle;html=1;whiteSpace=wrap;connectable=0;fillColor=none;top=0;left=0;bottom=0;right=0;overflow=hidden;shadow=0;" vertex="1" parent="FmbhV3B63-I_-Q1P8VYZ-107">
          <mxGeometry x="15" width="14" height="11" as="geometry" />
        </mxCell>
        <mxCell id="FmbhV3B63-I_-Q1P8VYZ-110" value="" style="shape=partialRectangle;html=1;whiteSpace=wrap;connectable=0;fillColor=none;top=0;left=0;bottom=0;right=0;overflow=hidden;shadow=0;" vertex="1" parent="FmbhV3B63-I_-Q1P8VYZ-107">
          <mxGeometry x="29" width="15" height="11" as="geometry" />
        </mxCell>
        <mxCell id="FmbhV3B63-I_-Q1P8VYZ-111" value="" style="shape=partialRectangle;html=1;whiteSpace=wrap;collapsible=0;dropTarget=0;pointerEvents=0;fillColor=none;top=0;left=0;bottom=0;right=0;points=[[0,0.5],[1,0.5]];portConstraint=eastwest;shadow=0;" vertex="1" parent="FmbhV3B63-I_-Q1P8VYZ-106">
          <mxGeometry y="31" width="44" height="9" as="geometry" />
        </mxCell>
        <mxCell id="FmbhV3B63-I_-Q1P8VYZ-112" value="" style="shape=partialRectangle;html=1;whiteSpace=wrap;connectable=0;fillColor=none;top=0;left=0;bottom=0;right=0;overflow=hidden;shadow=0;" vertex="1" parent="FmbhV3B63-I_-Q1P8VYZ-111">
          <mxGeometry width="15" height="9" as="geometry" />
        </mxCell>
        <mxCell id="FmbhV3B63-I_-Q1P8VYZ-113" value="" style="shape=partialRectangle;html=1;whiteSpace=wrap;connectable=0;fillColor=none;top=0;left=0;bottom=0;right=0;overflow=hidden;shadow=0;" vertex="1" parent="FmbhV3B63-I_-Q1P8VYZ-111">
          <mxGeometry x="15" width="14" height="9" as="geometry" />
        </mxCell>
        <mxCell id="FmbhV3B63-I_-Q1P8VYZ-114" value="" style="shape=partialRectangle;html=1;whiteSpace=wrap;connectable=0;fillColor=none;top=0;left=0;bottom=0;right=0;overflow=hidden;shadow=0;" vertex="1" parent="FmbhV3B63-I_-Q1P8VYZ-111">
          <mxGeometry x="29" width="15" height="9" as="geometry" />
        </mxCell>
        <mxCell id="FmbhV3B63-I_-Q1P8VYZ-115" value="" style="shape=partialRectangle;html=1;whiteSpace=wrap;collapsible=0;dropTarget=0;pointerEvents=0;fillColor=none;top=0;left=0;bottom=0;right=0;points=[[0,0.5],[1,0.5]];portConstraint=eastwest;shadow=0;" vertex="1" parent="FmbhV3B63-I_-Q1P8VYZ-106">
          <mxGeometry y="40" width="44" height="10" as="geometry" />
        </mxCell>
        <mxCell id="FmbhV3B63-I_-Q1P8VYZ-116" value="" style="shape=partialRectangle;html=1;whiteSpace=wrap;connectable=0;fillColor=none;top=0;left=0;bottom=0;right=0;overflow=hidden;shadow=0;" vertex="1" parent="FmbhV3B63-I_-Q1P8VYZ-115">
          <mxGeometry width="15" height="10" as="geometry" />
        </mxCell>
        <mxCell id="FmbhV3B63-I_-Q1P8VYZ-117" value="" style="shape=partialRectangle;html=1;whiteSpace=wrap;connectable=0;fillColor=none;top=0;left=0;bottom=0;right=0;overflow=hidden;shadow=0;" vertex="1" parent="FmbhV3B63-I_-Q1P8VYZ-115">
          <mxGeometry x="15" width="14" height="10" as="geometry" />
        </mxCell>
        <mxCell id="FmbhV3B63-I_-Q1P8VYZ-118" value="" style="shape=partialRectangle;html=1;whiteSpace=wrap;connectable=0;fillColor=none;top=0;left=0;bottom=0;right=0;overflow=hidden;shadow=0;" vertex="1" parent="FmbhV3B63-I_-Q1P8VYZ-115">
          <mxGeometry x="29" width="15" height="10" as="geometry" />
        </mxCell>
        <mxCell id="FmbhV3B63-I_-Q1P8VYZ-119" value="&lt;font style=&quot;font-size: 11px&quot;&gt;VRF_B&lt;/font&gt;" style="shape=table;html=1;whiteSpace=wrap;startSize=20;container=1;collapsible=0;childLayout=tableLayout;fontStyle=1;align=center;shadow=0;sketch=0;fillColor=#d5e8d4;fontFamily=Helvetica;strokeColor=#82b366;" vertex="1" parent="1">
          <mxGeometry x="685" y="480" width="44" height="50" as="geometry" />
        </mxCell>
        <mxCell id="FmbhV3B63-I_-Q1P8VYZ-120" value="" style="shape=partialRectangle;html=1;whiteSpace=wrap;collapsible=0;dropTarget=0;pointerEvents=0;fillColor=none;top=0;left=0;bottom=0;right=0;points=[[0,0.5],[1,0.5]];portConstraint=eastwest;shadow=0;" vertex="1" parent="FmbhV3B63-I_-Q1P8VYZ-119">
          <mxGeometry y="20" width="44" height="11" as="geometry" />
        </mxCell>
        <mxCell id="FmbhV3B63-I_-Q1P8VYZ-121" value="" style="shape=partialRectangle;html=1;whiteSpace=wrap;connectable=0;fillColor=none;top=0;left=0;bottom=0;right=0;overflow=hidden;shadow=0;" vertex="1" parent="FmbhV3B63-I_-Q1P8VYZ-120">
          <mxGeometry width="15" height="11" as="geometry" />
        </mxCell>
        <mxCell id="FmbhV3B63-I_-Q1P8VYZ-122" value="" style="shape=partialRectangle;html=1;whiteSpace=wrap;connectable=0;fillColor=none;top=0;left=0;bottom=0;right=0;overflow=hidden;shadow=0;" vertex="1" parent="FmbhV3B63-I_-Q1P8VYZ-120">
          <mxGeometry x="15" width="14" height="11" as="geometry" />
        </mxCell>
        <mxCell id="FmbhV3B63-I_-Q1P8VYZ-123" value="" style="shape=partialRectangle;html=1;whiteSpace=wrap;connectable=0;fillColor=none;top=0;left=0;bottom=0;right=0;overflow=hidden;shadow=0;" vertex="1" parent="FmbhV3B63-I_-Q1P8VYZ-120">
          <mxGeometry x="29" width="15" height="11" as="geometry" />
        </mxCell>
        <mxCell id="FmbhV3B63-I_-Q1P8VYZ-124" value="" style="shape=partialRectangle;html=1;whiteSpace=wrap;collapsible=0;dropTarget=0;pointerEvents=0;fillColor=none;top=0;left=0;bottom=0;right=0;points=[[0,0.5],[1,0.5]];portConstraint=eastwest;shadow=0;" vertex="1" parent="FmbhV3B63-I_-Q1P8VYZ-119">
          <mxGeometry y="31" width="44" height="9" as="geometry" />
        </mxCell>
        <mxCell id="FmbhV3B63-I_-Q1P8VYZ-125" value="" style="shape=partialRectangle;html=1;whiteSpace=wrap;connectable=0;fillColor=none;top=0;left=0;bottom=0;right=0;overflow=hidden;shadow=0;" vertex="1" parent="FmbhV3B63-I_-Q1P8VYZ-124">
          <mxGeometry width="15" height="9" as="geometry" />
        </mxCell>
        <mxCell id="FmbhV3B63-I_-Q1P8VYZ-126" value="" style="shape=partialRectangle;html=1;whiteSpace=wrap;connectable=0;fillColor=none;top=0;left=0;bottom=0;right=0;overflow=hidden;shadow=0;" vertex="1" parent="FmbhV3B63-I_-Q1P8VYZ-124">
          <mxGeometry x="15" width="14" height="9" as="geometry" />
        </mxCell>
        <mxCell id="FmbhV3B63-I_-Q1P8VYZ-127" value="" style="shape=partialRectangle;html=1;whiteSpace=wrap;connectable=0;fillColor=none;top=0;left=0;bottom=0;right=0;overflow=hidden;shadow=0;" vertex="1" parent="FmbhV3B63-I_-Q1P8VYZ-124">
          <mxGeometry x="29" width="15" height="9" as="geometry" />
        </mxCell>
        <mxCell id="FmbhV3B63-I_-Q1P8VYZ-128" value="" style="shape=partialRectangle;html=1;whiteSpace=wrap;collapsible=0;dropTarget=0;pointerEvents=0;fillColor=none;top=0;left=0;bottom=0;right=0;points=[[0,0.5],[1,0.5]];portConstraint=eastwest;shadow=0;" vertex="1" parent="FmbhV3B63-I_-Q1P8VYZ-119">
          <mxGeometry y="40" width="44" height="10" as="geometry" />
        </mxCell>
        <mxCell id="FmbhV3B63-I_-Q1P8VYZ-129" value="" style="shape=partialRectangle;html=1;whiteSpace=wrap;connectable=0;fillColor=none;top=0;left=0;bottom=0;right=0;overflow=hidden;shadow=0;" vertex="1" parent="FmbhV3B63-I_-Q1P8VYZ-128">
          <mxGeometry width="15" height="10" as="geometry" />
        </mxCell>
        <mxCell id="FmbhV3B63-I_-Q1P8VYZ-130" value="" style="shape=partialRectangle;html=1;whiteSpace=wrap;connectable=0;fillColor=none;top=0;left=0;bottom=0;right=0;overflow=hidden;shadow=0;" vertex="1" parent="FmbhV3B63-I_-Q1P8VYZ-128">
          <mxGeometry x="15" width="14" height="10" as="geometry" />
        </mxCell>
        <mxCell id="FmbhV3B63-I_-Q1P8VYZ-131" value="" style="shape=partialRectangle;html=1;whiteSpace=wrap;connectable=0;fillColor=none;top=0;left=0;bottom=0;right=0;overflow=hidden;shadow=0;" vertex="1" parent="FmbhV3B63-I_-Q1P8VYZ-128">
          <mxGeometry x="29" width="15" height="10" as="geometry" />
        </mxCell>
        <mxCell id="FmbhV3B63-I_-Q1P8VYZ-132" value="&lt;font style=&quot;font-size: 14px&quot;&gt;&lt;b&gt;CORE MPLS&lt;/b&gt;&lt;/font&gt;" style="text;html=1;strokeColor=none;fillColor=none;align=center;verticalAlign=middle;whiteSpace=wrap;rounded=0;shadow=0;sketch=0;fontFamily=Helvetica;" vertex="1" parent="1">
          <mxGeometry x="425" y="218" width="110" height="20" as="geometry" />
        </mxCell>
        <mxCell id="FmbhV3B63-I_-Q1P8VYZ-133" value="&lt;b&gt;&lt;font style=&quot;font-size: 15px&quot;&gt;P&lt;/font&gt;&lt;/b&gt;" style="text;html=1;strokeColor=none;fillColor=none;align=center;verticalAlign=middle;whiteSpace=wrap;rounded=0;shadow=1;dashed=1;sketch=0;fontFamily=Helvetica;" vertex="1" parent="1">
          <mxGeometry x="594" y="363" width="40" height="20" as="geometry" />
        </mxCell>
        <mxCell id="FmbhV3B63-I_-Q1P8VYZ-134" value="&lt;b&gt;&lt;font style=&quot;font-size: 15px&quot;&gt;P&lt;/font&gt;&lt;/b&gt;" style="text;html=1;strokeColor=none;fillColor=none;align=center;verticalAlign=middle;whiteSpace=wrap;rounded=0;shadow=1;dashed=1;sketch=0;fontFamily=Helvetica;" vertex="1" parent="1">
          <mxGeometry x="360" y="365" width="40" height="20" as="geometry" />
        </mxCell>
        <mxCell id="FmbhV3B63-I_-Q1P8VYZ-135" value="&lt;b&gt;&lt;font style=&quot;font-size: 15px&quot;&gt;P&lt;/font&gt;&lt;/b&gt;" style="text;html=1;strokeColor=none;fillColor=none;align=center;verticalAlign=middle;whiteSpace=wrap;rounded=0;shadow=1;dashed=1;sketch=0;fontFamily=Helvetica;" vertex="1" parent="1">
          <mxGeometry x="593" y="298" width="40" height="20" as="geometry" />
        </mxCell>
        <mxCell id="FmbhV3B63-I_-Q1P8VYZ-136" value="&lt;b&gt;&lt;font style=&quot;font-size: 15px&quot;&gt;P&lt;/font&gt;&lt;/b&gt;" style="text;html=1;strokeColor=none;fillColor=none;align=center;verticalAlign=middle;whiteSpace=wrap;rounded=0;shadow=1;dashed=1;sketch=0;fontFamily=Helvetica;" vertex="1" parent="1">
          <mxGeometry x="360" y="293" width="40" height="20" as="geometry" />
        </mxCell>
        <mxCell id="FmbhV3B63-I_-Q1P8VYZ-139" value="&lt;font style=&quot;font-size: 14px&quot;&gt;&lt;b&gt;ISP MPLS NETWORK&lt;/b&gt;&lt;/font&gt;" style="text;html=1;strokeColor=none;fillColor=none;align=center;verticalAlign=middle;whiteSpace=wrap;rounded=0;shadow=0;sketch=0;fontFamily=Helvetica;" vertex="1" parent="1">
          <mxGeometry x="360" y="131" width="152" height="20" as="geometry" />
        </mxCell>
      </root>
    </mxGraphModel>
  </diagram>
</mxfile>
